<svg fill="none" height="800" viewBox="0 0 1280 800" width="1280" xmlns="http://www.w3.org/2000/svg" xmlns:xlink="http://www.w3.org/1999/xlink"><clipPath id="a"><path d="m0 0h1280v800h-1280z"/></clipPath><clipPath id="b"><path d="m41 51h195.51v37.4943h-195.51z"/></clipPath><g clip-path="url(#a)"><path d="m0 0h1280v800h-1280z" fill="#fff"/><path d="m0 0h1280v800h-1280z" fill="#203946"/><g clip-path="url(#b)"><path d="m76.1483 87.1728c-.0243-.8548-.3456-20.9083-.3456-20.9083 0-9.4206-7.7231-15.2645-17.2286-15.2645-9.5054 0-17.2104 5.6923-17.2104 15.0947 0 0-.3334 20.2233-.3637 21.066v1.3397l1.2124-.0121c.2971 0 7.2807-.1213 10.8513-2.3703 3.7585-2.3764 3.9585-4.2435 4.0555-8.2385.1091-4.7709-.0424-12.6638-.0485-12.8335 0-.0061-.0606-.97.4062-1.4852.0849-.091.3395-.3759 1.1033-.3759s1.0124.2789 1.0972.3698c.4001.4365.4365 1.2306.4062 1.5822 0 .0788-.1576 7.9778-.0424 12.7426.0909 3.995.291 5.8621 4.0555 8.2385 3.5646 2.249 10.5542 2.3642 10.8513 2.3703l1.2488-.0607-.0364-1.2488zm-20.4476-25.2306c-1.1761 1.2973-1.0366 3.122-1.0245 3.2371 0 .0788.1576 7.9233.0485 12.6396-.0849 3.5282-.1031 4.4799-2.9402 6.2683-2.1945 1.3882-6.2925 1.8125-8.3536 1.9459.0667-2.4491.194-8.2142.2183-15.7737l.0121.0121v-3.316c0-6.4804 4.2495-13.0154 13.7125-13.5246v7.511c-.8062.2182-1.3397.6365-1.6792 1.0063m9.6691 22.145c-2.831-1.7883-2.8552-2.7401-2.9401-6.2682-.1091-4.7164.0424-12.5487.0424-12.5487.0182-.2061.1576-2.0308-1.0184-3.322-.3395-.3698-.873-.7881-1.6792-1.0063v-7.5231c9.463.5092 13.7125 7.0442 13.7125 13.5246v3.122h.0122c.0242 7.614.1576 13.4337.2243 15.9616-2.0612-.1273-6.1592-.5577-8.3537-1.9459" fill="#de854d"/><g fill="#fff"><path d="m121.857 85.4815h-3.492v-16.58c0-7.5837-5.341-10.2814-10.342-10.2814s-10.3422 2.7037-10.3422 10.2814v16.58h-3.4918v-16.58c0-9.5115 6.947-13.7732 13.834-13.7732 6.886 0 13.834 4.2617 13.834 13.7732z"/><path d="m222.676 87.6517c-6.886 0-13.834-4.2617-13.834-13.7732v-4.977c0-9.5115 6.948-13.7732 13.834-13.7732 6.887 0 13.834 4.2617 13.834 13.7732v4.977c0 9.5115-6.947 13.7732-13.834 13.7732zm0-29.0376c-5.001 0-10.342 2.7037-10.342 10.2813v4.9771c0 7.5837 5.341 10.2813 10.342 10.2813s10.342-2.7037 10.342-10.2813v-4.9771c0-7.5837-5.341-10.2813-10.342-10.2813z"/><path d="m141.455 87.6517c-6.886 0-13.833-4.2617-13.833-13.7732v-16.5799h3.491v16.5799c0 7.5838 5.341 10.2814 10.342 10.2814 5.002 0 10.342-2.7037 10.342-10.2814v-16.5799h3.492v16.5799c0 9.5115-6.947 13.7732-13.834 13.7732z"/><path d="m164.279 85.4815h-3.491v-16.58c0-9.4206 5.953-13.7368 11.512-13.7732h.072c5.559.0364 11.512 4.3526 11.512 13.7732v11.6514h-3.491v-11.6514c0-7.0806-4.044-10.2632-8.063-10.2814-4.019.0182-8.057 3.2008-8.057 10.2814v16.58z"/><path d="m164.279 85.4815h-3.491v-16.58c0-9.4206 5.953-13.7368 11.512-13.7732h.072c5.559.0364 11.512 4.3526 11.512 13.7732v11.6514h-3.491v-11.6514c0-7.0806-4.044-10.2632-8.063-10.2814-4.019.0182-8.057 3.2008-8.057 10.2814v16.58z"/><path d="m203.599 85.4815h-3.492v-16.58c0-7.0806-4.044-10.2632-8.063-10.2814-4.019.0182-8.062 3.2008-8.062 10.2814v11.6514h-3.492v-11.6514c0-9.4206 5.953-13.7368 11.512-13.7732h.072c5.559.0364 11.512 4.3526 11.512 13.7732v16.58z"/><path d="m233.788 55.4981v1.6186h-.436v-1.6186h-.473v-.3152h1.376v.3152h-.473zm1.097.3092h-.018l.018.297v1.0124h-.381v-1.9338h.557l.322.9638.066.2365h.018l.061-.2365.321-.9638h.558v1.9338h-.394v-1.0124l.012-.297h-.018l-.418 1.3094h-.297l-.413-1.3094z"/></g></g></g></svg>